<?xml version="1.0" standalone="no"?>
<!DOCTYPE svg PUBLIC "-//W3C//DTD SVG 20010904//EN"
 "http://www.w3.org/TR/2001/REC-SVG-20010904/DTD/svg10.dtd">
<svg version="1.0" xmlns="http://www.w3.org/2000/svg"
 viewBox="0 0 2600.000000 2600.000000"
 preserveAspectRatio="xMidYMid meet">
<metadata>
Created by potrace 1.15, written by Peter Selinger 2001-2017
</metadata>
<g transform="translate(0.000000,2600.000000) scale(0.100000,-0.100000)"
fill="#000000" stroke="none">
<path d="M11790 23553 c-55 -36 -125 -112 -181 -196 -71 -108 -129 -225 -304
-622 -76 -170 -189 -413 -252 -539 -63 -126 -121 -256 -130 -290 -46 -181 65
-382 353 -638 60 -53 217 -185 349 -294 352 -290 508 -428 713 -628 l183 -180
67 33 c412 203 684 501 779 856 25 92 27 116 27 290 0 160 -3 207 -22 295 -94
437 -359 906 -768 1362 -221 246 -514 487 -670 553 -47 19 -112 18 -144 -2z"/>
<path d="M5081 22880 c-227 -60 -442 -200 -676 -441 -558 -574 -895 -1478
-780 -2087 42 -219 158 -430 300 -546 104 -85 327 -196 394 -196 13 0 80 83
207 258 344 469 544 720 783 985 258 284 589 590 913 843 l28 22 -29 103
c-173 613 -441 977 -786 1064 -85 22 -261 19 -354 -5z"/>
<path d="M13455 21408 c2 -7 27 -119 54 -248 153 -724 259 -1432 321 -2145 60
-695 66 -1593 15 -2245 -117 -1488 -483 -2738 -1077 -3684 -302 -481 -717
-926 -1133 -1217 -291 -202 -664 -385 -993 -485 -452 -137 -919 -189 -1492
-165 -810 34 -1372 152 -1875 395 -382 184 -631 373 -1135 861 -451 436 -673
615 -1003 805 -60 34 -151 82 -203 106 l-94 43 -13 -32 c-248 -595 -149 -2015
294 -4212 243 -1202 552 -2499 1090 -4565 229 -877 325 -1261 363 -1450 36
-182 49 -213 105 -269 243 -243 944 -423 1878 -482 214 -13 921 -7 1088 11
681 70 1081 213 1200 431 35 64 37 107 18 324 -29 316 -44 1043 -63 2910 -27
2674 -71 4053 -154 4776 -11 99 -11 109 3 104 607 -235 1473 -282 2129 -116
l113 28 66 -72 c195 -215 334 -487 393 -767 121 -574 -59 -1276 -546 -2125
-237 -414 -448 -720 -1014 -1478 -637 -852 -666 -902 -754 -1296 -49 -220 -60
-336 -61 -599 0 -269 11 -368 65 -588 137 -561 492 -1020 965 -1247 226 -109
438 -156 700 -157 517 -1 945 182 1630 697 942 708 2024 1835 2784 2900 816
1143 1277 2157 1408 3095 22 159 25 626 5 770 -38 269 -101 480 -232 770 -221
491 -351 900 -471 1490 -119 583 -187 1175 -279 2440 -61 838 -89 1163 -136
1560 -131 1117 -342 1917 -689 2610 -538 1074 -1412 1831 -2690 2330 -120 47
-565 200 -581 200 -2 0 -1 -6 1 -12z"/>
<path d="M7637 17776 c-576 -102 -1012 -477 -1196 -1032 -157 -471 -128 -1075
71 -1456 130 -250 284 -339 446 -257 79 39 122 87 255 287 567 852 912 1607
934 2042 11 221 -55 350 -207 406 -60 22 -207 26 -303 10z"/>
<path d="M10556 17766 c-88 -33 -126 -87 -126 -176 0 -203 143 -459 695 -1245
364 -519 513 -753 631 -992 73 -149 84 -158 151 -125 164 84 365 478 435 852
28 151 31 412 5 542 -81 408 -326 711 -742 918 -193 95 -356 150 -635 211
-127 27 -358 36 -414 15z"/>
<path d="M21035 17737 c-188 -251 -316 -577 -485 -1242 -121 -475 -201 -856
-451 -2150 -233 -1209 -347 -1753 -489 -2330 -250 -1022 -517 -1771 -794
-2230 -64 -105 -69 -119 -112 -290 -25 -99 -110 -430 -189 -735 -456 -1760
-682 -2765 -794 -3531 -52 -351 -64 -497 -64 -739 0 -200 2 -234 21 -305 27
-98 61 -152 110 -172 137 -58 724 -127 1412 -167 838 -49 1834 -51 2435 -6
573 44 969 130 1119 245 72 55 74 63 106 407 143 1527 183 2831 115 3778 -38
522 -84 849 -211 1494 -162 825 -188 1131 -148 1726 33 502 29 1152 -12 1660
-143 1806 -662 3531 -1309 4345 -56 71 -232 255 -244 255 -3 0 -11 -6 -16 -13z"/>
<path d="M10500 14324 c-25 -2 -130 -11 -235 -20 -436 -35 -1433 -156 -1523
-185 -78 -25 -81 -66 -11 -144 131 -142 651 -423 1079 -583 182 -68 200 -70
277 -33 232 111 752 539 912 751 93 123 103 175 39 201 -32 12 -427 22 -538
13z"/>
<path d="M11430 13162 c-150 -129 -300 -196 -510 -227 -178 -27 -369 -19 -701
31 l-177 27 -113 -50 c-343 -152 -683 -201 -1096 -158 -246 26 -528 89 -732
164 -150 55 -157 36 -17 -48 228 -137 481 -231 775 -288 117 -22 164 -26 336
-27 327 -1 546 42 780 153 l100 47 100 -12 c164 -22 448 -29 561 -15 131 17
311 63 391 100 95 45 206 126 276 201 64 70 113 145 100 153 -5 3 -37 -20 -73
-51z"/>
</g>
</svg>
